<?xml version="1.0" encoding="UTF-8"?><svg id="Layer_1" xmlns="http://www.w3.org/2000/svg" viewBox="0 0 283.465 283.465"><path d="M7.537,191.984h12.074c4.489,0,8.706.594,12.653,1.78,3.947,1.189,7.416,2.981,10.409,5.38,2.992,2.4,5.352,5.406,7.081,9.017,1.728,3.611,2.592,7.842,2.592,12.692,0,4.952-.85,9.286-2.553,13.002-1.703,3.716-4.037,6.785-7.005,9.21-2.967,2.426-6.463,4.245-10.486,5.456-4.025,1.214-8.333,1.819-12.925,1.819H7.537v-58.355ZM14.812,243.683h2.553c3.715,0,7.249-.374,10.603-1.122,3.353-.747,6.294-1.999,8.823-3.753,2.527-1.755,4.539-4.075,6.036-6.966,1.495-2.889,2.245-6.449,2.245-10.68s-.75-7.791-2.245-10.68c-1.497-2.889-3.509-5.211-6.036-6.967-2.529-1.752-5.47-3.004-8.823-3.752-3.355-.748-6.888-1.123-10.603-1.123h-2.553v45.043Z" fill="#f15a22"/><path d="M19.378,250.997H6.88v-59.67h12.731c4.53,0,8.851.608,12.843,1.808,4.009,1.207,7.586,3.057,10.631,5.496,3.054,2.45,5.498,5.561,7.263,9.246,1.763,3.684,2.657,8.05,2.657,12.977,0,5.026-.879,9.493-2.613,13.276-1.737,3.789-4.155,6.967-7.186,9.444-3.02,2.47-6.624,4.346-10.713,5.577-4.064,1.225-8.477,1.847-13.115,1.847ZM8.194,249.682h11.183c4.509,0,8.794-.603,12.735-1.791,3.922-1.181,7.374-2.976,10.26-5.336,2.875-2.35,5.171-5.369,6.823-8.974,1.655-3.61,2.494-7.892,2.494-12.728,0-4.729-.851-8.904-2.528-12.409-1.679-3.506-4.001-6.463-6.9-8.788-2.913-2.333-6.34-4.104-10.188-5.263-3.868-1.163-8.062-1.752-12.464-1.752h-11.416v57.04ZM17.365,244.34h-3.211v-46.357h3.211c3.744,0,7.36.383,10.746,1.139,3.418.763,6.464,2.059,9.055,3.853,2.606,1.811,4.707,4.235,6.246,7.206,1.539,2.972,2.319,6.667,2.319,10.982s-.78,8.009-2.319,10.982c-1.538,2.97-3.639,5.394-6.245,7.204-2.59,1.796-5.636,3.093-9.055,3.854-3.384.755-7,1.138-10.746,1.138ZM15.469,243.025h1.896c3.65,0,7.169-.372,10.46-1.106,3.252-.725,6.143-1.953,8.592-3.652,2.428-1.686,4.389-3.95,5.827-6.728,1.441-2.784,2.172-6.275,2.172-10.378s-.731-7.594-2.172-10.377c-1.439-2.778-3.4-5.042-5.827-6.73-2.449-1.696-5.34-2.924-8.591-3.65-3.293-.735-6.812-1.107-10.46-1.107h-1.896v43.728Z" fill="#f15a22"/><polyline points="223.281 235.711 229.937 250.339 237.753 250.339 209.892 189.509 182.03 250.339 189.847 250.339 196.502 235.711 199.595 229.056 199.52 229.056 209.892 205.451 220.263 229.056" fill="#f15a22"/><polygon points="238.777 250.997 229.514 250.997 219.655 229.273 220.852 228.729 230.36 249.682 236.729 249.682 209.892 191.088 183.055 249.682 189.424 249.682 195.904 235.439 198.565 229.714 198.513 229.714 209.892 203.817 220.865 228.792 219.661 229.321 209.892 207.085 200.527 228.399 200.626 228.399 197.099 235.988 190.271 250.997 181.006 250.997 209.892 187.93 238.777 250.997" fill="#f15a22"/><polyline points="94.365 235.711 101.022 250.339 108.837 250.339 80.976 189.509 53.115 250.339 60.932 250.339 67.587 235.711 70.68 229.056 70.604 229.056 80.976 205.451 91.348 229.056" fill="#f15a22"/><polygon points="109.862 250.997 100.598 250.997 90.74 229.273 91.936 228.729 101.445 249.682 107.813 249.682 80.976 191.088 54.139 249.682 60.509 249.682 66.989 235.439 69.649 229.714 69.597 229.714 80.976 203.817 91.95 228.792 90.746 229.321 80.976 207.085 71.611 228.399 71.71 228.399 68.183 235.988 61.355 250.997 52.091 250.997 80.976 187.93 109.862 250.997" fill="#f15a22"/><polygon points="128.423 211.797 128.269 211.797 121.458 250.34 113.951 250.34 125.869 189.508 145.913 235.479 165.958 189.508 177.877 250.34 170.371 250.34 163.56 211.797 163.405 211.797 145.913 251.577 128.423 211.797" fill="#f15a22"/><path d="M145.913,253.211l-17.33-39.416-6.574,37.203h-8.857l12.476-63.684,20.284,46.521,20.285-46.521,12.478,63.684h-8.857l-6.574-37.203-17.332,39.416ZM127.717,211.14h1.135l17.061,38.804,17.063-38.804h1.135l6.811,38.542h6.156l-11.36-57.979-19.805,45.421-19.804-45.421-11.359,57.979h6.156l6.811-38.542Z" fill="#f15a22"/><path d="M269.2,203.052c-1.084-1.805-2.361-3.172-3.831-4.102-1.472-.928-3.317-1.392-5.534-1.392-1.187,0-2.36.192-3.522.58-1.16.387-2.205.942-3.133,1.664-.929.723-1.678,1.587-2.244,2.594-.57,1.005-.852,2.153-.852,3.444,0,1.135.257,2.141.774,3.017.514.877,1.161,1.653,1.934,2.322.774.67,1.638,1.251,2.592,1.742.953.489,1.895.916,2.825,1.277l4.18,1.625c2.063.826,3.985,1.741,5.766,2.747,1.78,1.006,3.314,2.206,4.605,3.599,1.288,1.394,2.294,3.007,3.017,4.837.723,1.831,1.084,3.96,1.084,6.385,0,2.633-.478,5.069-1.431,7.314-.956,2.245-2.272,4.167-3.948,5.767-1.677,1.599-3.65,2.85-5.92,3.752-2.27.903-4.721,1.355-7.352,1.355-2.373,0-4.593-.414-6.655-1.238-2.065-.825-3.883-1.961-5.456-3.405-1.575-1.445-2.877-3.175-3.909-5.186-1.033-2.012-1.702-4.18-2.012-6.502l7.353-1.548c0,1.601.283,3.083.852,4.45.566,1.368,1.366,2.542,2.399,3.522,1.031.981,2.245,1.742,3.637,2.284,1.392.541,2.863.813,4.412.813s2.978-.311,4.294-.93c1.317-.619,2.45-1.444,3.406-2.477.953-1.031,1.702-2.23,2.244-3.599.542-1.367.813-2.825.813-4.373s-.284-2.903-.852-4.063c-.567-1.161-1.328-2.167-2.283-3.019-.955-.852-2.039-1.599-3.25-2.244-1.212-.645-2.438-1.226-3.676-1.742l-4.025-1.702c-1.651-.722-3.25-1.509-4.797-2.361-1.548-.852-2.903-1.858-4.064-3.019-1.16-1.16-2.091-2.516-2.785-4.063-.698-1.548-1.045-3.328-1.045-5.339,0-2.373.476-4.49,1.43-6.347.956-1.858,2.233-3.431,3.831-4.722,1.6-1.288,3.431-2.282,5.495-2.978,2.063-.697,4.205-1.045,6.425-1.045,3.25,0,6.163.761,8.744,2.283,2.58,1.522,4.67,3.703,6.269,6.539l-5.803,3.483Z" fill="#f15a22"/><path d="M258.209,252.234c-2.445,0-4.766-.432-6.899-1.285-2.126-.849-4.029-2.037-5.657-3.531-1.621-1.488-2.984-3.295-4.05-5.37-1.06-2.066-1.76-4.325-2.079-6.715l-.081-.605,8.743-1.841v.81c0,1.507.269,2.92.801,4.198.528,1.276,1.282,2.385,2.244,3.298.963.916,2.114,1.638,3.423,2.148,1.312.509,2.716.767,4.174.767,1.44,0,2.791-.291,4.014-.867,1.231-.579,2.309-1.362,3.203-2.328.895-.968,1.607-2.11,2.115-3.394.509-1.282.766-2.673.766-4.131,0-1.439-.264-2.709-.785-3.774-.527-1.079-1.244-2.027-2.13-2.817-.907-.809-1.957-1.534-3.122-2.154-1.196-.636-2.414-1.213-3.62-1.715l-4.028-1.703c-1.666-.729-3.298-1.532-4.858-2.391-1.595-.877-3.012-1.93-4.211-3.13-1.214-1.214-2.196-2.647-2.92-4.258-.732-1.623-1.103-3.51-1.103-5.609,0-2.471.506-4.708,1.503-6.647.994-1.931,2.341-3.591,4.003-4.933,1.655-1.332,3.572-2.372,5.698-3.09,2.121-.717,4.353-1.08,6.635-1.08,3.352,0,6.406.799,9.078,2.374,2.669,1.575,4.858,3.857,6.508,6.783l.314.557-6.916,4.15-.338-.563c-1.026-1.708-2.244-3.015-3.619-3.884-1.358-.856-3.101-1.291-5.183-1.291-1.112,0-2.227.184-3.314.546-1.085.363-2.073.887-2.937,1.559-.857.667-1.555,1.474-2.075,2.397-.509.898-.767,1.948-.767,3.122,0,1.013.23,1.915.682,2.683.477.813,1.082,1.539,1.798,2.159.731.634,1.56,1.19,2.463,1.654.933.479,1.862.899,2.763,1.249l4.18,1.625c2.094.839,4.061,1.776,5.851,2.787,1.829,1.034,3.432,2.287,4.764,3.724,1.338,1.448,2.397,3.144,3.147,5.043.75,1.899,1.13,4.128,1.13,6.626,0,2.706-.499,5.253-1.484,7.571-.987,2.318-2.366,4.331-4.1,5.986-1.731,1.651-3.794,2.959-6.132,3.887-2.337.93-4.892,1.401-7.594,1.401ZM240.918,235.763c.331,2.018.954,3.928,1.856,5.686.994,1.936,2.262,3.619,3.769,5.001,1.51,1.386,3.278,2.489,5.256,3.279,1.977.79,4.134,1.19,6.411,1.19,2.535,0,4.927-.44,7.109-1.308,2.18-.866,4.101-2.083,5.71-3.617,1.603-1.53,2.881-3.397,3.797-5.549.915-2.154,1.379-4.528,1.379-7.057,0-2.332-.349-4.398-1.038-6.143-.69-1.747-1.662-3.305-2.889-4.633-1.239-1.336-2.735-2.505-4.446-3.472-1.739-.983-3.652-1.894-5.686-2.709l-4.173-1.623c-.942-.366-1.914-.805-2.887-1.305-.996-.512-1.912-1.127-2.723-1.829-.825-.714-1.522-1.55-2.071-2.486-.573-.972-.864-2.099-.864-3.35,0-1.404.315-2.671.937-3.768.604-1.074,1.416-2.013,2.412-2.788.982-.764,2.102-1.359,3.329-1.769,1.221-.407,2.476-.613,3.73-.613,2.334,0,4.314.503,5.885,1.494,1.395.881,2.635,2.145,3.695,3.762l4.694-2.817c-1.492-2.457-3.41-4.388-5.707-5.743-2.467-1.454-5.296-2.192-8.41-2.192-2.138,0-4.229.34-6.214,1.011-1.979.668-3.76,1.633-5.293,2.867-1.518,1.226-2.75,2.744-3.659,4.511-.901,1.752-1.357,3.786-1.357,6.046,0,1.911.332,3.616.987,5.069.658,1.466,1.55,2.767,2.65,3.868,1.112,1.112,2.429,2.09,3.916,2.907,1.526.84,3.121,1.625,4.744,2.335l4.017,1.698c1.24.516,2.496,1.111,3.73,1.767,1.257.67,2.394,1.455,3.379,2.334,1.014.904,1.833,1.987,2.436,3.221.609,1.245.918,2.709.918,4.351,0,1.626-.289,3.179-.859,4.616-.568,1.435-1.367,2.715-2.372,3.803-1.01,1.091-2.225,1.975-3.609,2.625-1.4.658-2.938.992-4.574.992-1.621,0-3.185-.288-4.65-.857-1.47-.573-2.766-1.387-3.853-2.421-1.096-1.04-1.955-2.301-2.553-3.747-.501-1.206-.796-2.514-.878-3.896l-5.978,1.259Z" fill="#f15a22"/><path d="M6.778,263.161h3.475c.336,0,.668.04.995.12.328.08.619.21.875.391s.464.413.624.698c.159.285.24.629.24,1.032,0,.504-.143.919-.428,1.247-.286.328-.66.562-1.121.705v.025c.277.033.535.111.774.233s.443.277.611.466.3.408.397.656c.096.248.145.514.145.799,0,.487-.096.892-.29,1.215-.193.324-.447.583-.761.781-.315.197-.676.337-1.083.421-.407.084-.821.126-1.24.126h-3.211v-8.915ZM8.364,266.789h1.448c.529,0,.925-.103,1.19-.309s.397-.476.397-.812c0-.385-.136-.673-.409-.863-.272-.189-.711-.282-1.315-.282h-1.31v2.267ZM8.364,270.717h1.46c.202,0,.418-.013.649-.039.231-.024.442-.083.636-.175s.353-.225.478-.397c.126-.171.189-.404.189-.698,0-.47-.153-.797-.46-.982s-.783-.277-1.429-.277h-1.524v2.569Z" fill="#f15a22"/><path d="M14.459,267.657c0-.713.117-1.362.353-1.946.235-.583.56-1.081.975-1.492s.911-.728,1.486-.951c.575-.222,1.207-.333,1.895-.333.696-.008,1.335.095,1.913.309.579.214,1.079.526,1.499.938.419.411.747.906.982,1.485s.353,1.226.353,1.939c0,.697-.118,1.331-.353,1.901-.235.571-.563,1.062-.982,1.473-.419.412-.919.733-1.499.963-.579.231-1.217.351-1.913.359-.688,0-1.321-.111-1.895-.333-.575-.222-1.07-.537-1.486-.945-.415-.407-.741-.895-.975-1.466-.235-.571-.353-1.204-.353-1.901ZM16.121,267.557c0,.478.074.919.22,1.322.147.403.355.751.624,1.045.268.293.589.525.963.692.373.169.791.253,1.252.253s.882-.084,1.26-.253c.377-.167.7-.399.969-.692.268-.294.476-.642.623-1.045.147-.403.221-.844.221-1.322,0-.446-.074-.86-.221-1.247-.147-.385-.355-.724-.623-1.014-.269-.289-.592-.515-.969-.68-.378-.163-.798-.245-1.26-.245s-.879.082-1.252.245c-.374.165-.695.391-.963.68-.269.29-.476.629-.624,1.014-.147.387-.22.801-.22,1.247Z" fill="#f15a22"/><path d="M32.565,268.802c0,.538-.092,1.022-.277,1.454s-.436.8-.755,1.103c-.319.301-.697.535-1.133.698-.436.163-.911.245-1.423.245s-.986-.082-1.422-.245c-.437-.163-.817-.397-1.14-.698-.323-.302-.575-.67-.755-1.103s-.271-.917-.271-1.454v-5.641h1.587v5.592c0,.218.033.447.1.686.068.238.179.459.334.661.155.201.361.367.617.496.256.131.573.195.951.195s.694-.064.951-.195c.256-.13.462-.296.618-.496.155-.202.266-.423.333-.661.068-.24.101-.468.101-.686v-5.592h1.586v5.641Z" fill="#f15a22"/><path d="M34.517,263.161h1.586v7.48h3.79v1.436h-5.376v-8.915Z" fill="#f15a22"/><path d="M43.935,263.161h1.372l3.841,8.915h-1.814l-.831-2.039h-3.866l-.806,2.039h-1.776l3.878-8.915ZM45.95,268.677l-1.372-3.626-1.398,3.626h2.77Z" fill="#f15a22"/><path d="M50.142,263.161h2.103l4.319,6.623h.025v-6.623h1.587v8.915h-2.015l-4.407-6.837h-.025v6.837h-1.586v-8.915Z" fill="#f15a22"/><path d="M68.085,271.422c-1.1.587-2.33.88-3.689.88-.688,0-1.321-.111-1.895-.333-.575-.222-1.07-.537-1.486-.945-.415-.407-.741-.895-.975-1.466-.235-.571-.353-1.204-.353-1.901,0-.713.117-1.362.353-1.946.235-.583.56-1.081.975-1.492s.911-.728,1.486-.951c.575-.222,1.207-.333,1.895-.333.68,0,1.317.082,1.913.246.596.163,1.129.455,1.6.875l-1.171,1.183c-.285-.277-.632-.491-1.038-.642-.407-.151-.838-.226-1.291-.226-.462,0-.879.082-1.252.245-.374.165-.695.391-.963.68-.269.29-.476.629-.624,1.014-.147.387-.22.801-.22,1.247,0,.478.074.919.22,1.322.147.403.355.751.624,1.045.268.293.589.525.963.692.373.169.791.253,1.252.253.403,0,.783-.039,1.14-.114.357-.076.674-.193.951-.353v-2.102h-1.826v-1.436h3.412v4.559Z" fill="#f15a22"/><path d="M69.962,263.161h5.905v1.436h-4.319v2.192h4.092v1.434h-4.092v2.418h4.546v1.436h-6.132v-8.915Z" fill="#f15a22"/><path d="M77.655,263.161h3.098c.428,0,.842.04,1.24.12.398.08.753.215,1.064.409.31.193.558.452.743.78s.277.743.277,1.247c0,.646-.178,1.188-.535,1.624-.357.436-.867.701-1.53.793l2.367,3.941h-1.914l-2.065-3.777h-1.159v3.777h-1.586v-8.915ZM80.475,266.94c.226,0,.453-.011.68-.032s.434-.071.624-.151c.189-.079.342-.201.46-.365.117-.163.176-.392.176-.686,0-.26-.055-.47-.164-.629s-.252-.28-.428-.359c-.177-.08-.372-.132-.586-.158s-.421-.037-.623-.037h-1.373v2.418h1.234Z" fill="#f15a22"/><path d="M85.549,263.161h1.587v8.915h-1.587v-8.915Z" fill="#f15a22"/><path d="M89.088,263.161h5.905v1.436h-4.319v2.192h4.092v1.434h-4.092v2.418h4.546v1.436h-6.132v-8.915Z" fill="#f15a22"/><path d="M103.052,269.621h-3.111v-1.285h3.111v1.285Z" fill="#f15a22"/><path d="M108.201,263.161h2.997c.428,0,.842.043,1.24.127.399.083.749.223,1.052.421.302.197.543.462.724.793s.27.744.27,1.24c0,.562-.096,1.016-.289,1.359-.194.344-.454.61-.781.799-.326.19-.706.317-1.139.384-.434.068-.884.102-1.354.102h-1.133v3.689h-1.587v-8.915ZM110.745,267.027c.227,0,.462-.008.705-.024.244-.017.468-.068.674-.151.205-.084.373-.21.503-.379.13-.167.195-.403.195-.705,0-.277-.059-.496-.177-.661-.118-.163-.269-.289-.452-.377-.186-.088-.391-.145-.618-.17-.226-.025-.444-.037-.654-.037h-1.133v2.505h.957Z" fill="#f15a22"/><path d="M117.769,263.161h1.373l3.84,8.915h-1.813l-.831-2.039h-3.866l-.806,2.039h-1.776l3.878-8.915ZM119.784,268.677l-1.373-3.626-1.397,3.626h2.77Z" fill="#f15a22"/><path d="M124.809,264.597h-2.732v-1.436h7.051v1.436h-2.732v7.48h-1.587v-7.48Z" fill="#f15a22"/><path d="M130.173,263.161h1.587v8.915h-1.587v-8.915Z" fill="#f15a22"/><path d="M138.081,265.076c-.169-.244-.393-.421-.674-.535s-.577-.17-.887-.17c-.185,0-.363.021-.535.063s-.328.108-.466.201c-.139.094-.25.213-.335.36-.083.146-.126.321-.126.522,0,.302.106.534.316.693.209.159.47.298.78.415.31.118.65.231,1.02.34.369.11.709.261,1.021.454.31.194.57.45.78.768.21.32.314.743.314,1.272,0,.478-.088.895-.264,1.252-.177.357-.413.653-.712.887-.298.235-.645.412-1.038.53-.395.116-.811.175-1.247.175-.554,0-1.088-.092-1.599-.277-.512-.185-.953-.495-1.322-.931l1.196-1.159c.193.294.447.523.761.686s.649.246,1.001.246c.185,0,.369-.025.554-.076s.353-.126.504-.226c.151-.102.272-.229.365-.384.092-.155.138-.335.138-.535,0-.328-.104-.579-.314-.756s-.471-.325-.781-.447-.65-.237-1.02-.347c-.369-.108-.709-.258-1.02-.447s-.571-.44-.781-.755c-.209-.316-.314-.737-.314-1.266,0-.462.095-.86.284-1.196s.436-.616.743-.838.657-.388,1.052-.498c.395-.108.797-.163,1.208-.163.471,0,.926.071,1.366.214.442.143.838.377,1.191.705l-1.159,1.222Z" fill="#f15a22"/><path d="M145.308,265.076c-.169-.244-.393-.421-.674-.535s-.577-.17-.887-.17c-.185,0-.363.021-.535.063s-.328.108-.466.201c-.139.094-.25.213-.335.36-.083.146-.126.321-.126.522,0,.302.106.534.316.693.209.159.47.298.78.415.31.118.65.231,1.02.34.369.11.709.261,1.021.454.31.194.57.45.78.768.21.32.314.743.314,1.272,0,.478-.088.895-.264,1.252-.177.357-.413.653-.712.887-.298.235-.645.412-1.038.53-.395.116-.811.175-1.247.175-.554,0-1.088-.092-1.599-.277-.512-.185-.953-.495-1.322-.931l1.196-1.159c.193.294.447.523.761.686s.649.246,1.001.246c.185,0,.369-.025.554-.076s.353-.126.504-.226c.151-.102.272-.229.365-.384.092-.155.138-.335.138-.535,0-.328-.104-.579-.314-.756s-.471-.325-.781-.447-.65-.237-1.02-.347c-.369-.108-.709-.258-1.02-.447s-.571-.44-.781-.755c-.209-.316-.314-.737-.314-1.266,0-.462.095-.86.284-1.196s.436-.616.743-.838.657-.388,1.052-.498c.395-.108.797-.163,1.208-.163.471,0,.926.071,1.366.214.442.143.838.377,1.191.705l-1.159,1.222Z" fill="#f15a22"/><path d="M148.166,263.161h5.906v1.436h-4.319v2.192h4.093v1.434h-4.093v2.418h4.545v1.436h-6.132v-8.915Z" fill="#f15a22"/><path d="M155.858,263.161h3.098c.428,0,.842.04,1.24.12s.753.215,1.064.409c.312.193.559.452.744.78s.277.743.277,1.247c0,.646-.179,1.188-.535,1.624-.357.436-.867.701-1.531.793l2.368,3.941h-1.915l-2.065-3.777h-1.159v3.777h-1.587v-8.915ZM158.679,266.94c.227,0,.454-.011.681-.032.226-.021.434-.071.622-.151.189-.079.343-.201.46-.365.118-.163.177-.392.177-.686,0-.26-.055-.47-.165-.629-.108-.159-.252-.28-.428-.359-.175-.08-.371-.132-.585-.158s-.423-.037-.624-.037h-1.373v2.418h1.234Z" fill="#f15a22"/><path d="M163.754,263.161h1.587v8.915h-1.587v-8.915Z" fill="#f15a22"/><path d="M167.292,263.161h5.906v1.436h-4.319v2.192h4.093v1.434h-4.093v2.418h4.545v1.436h-6.132v-8.915Z" fill="#f15a22"/><path d="M181.255,269.621h-3.11v-1.285h3.11v1.285Z" fill="#f15a22"/><path d="M190.774,265.076c-.169-.244-.393-.421-.674-.535s-.577-.17-.887-.17c-.185,0-.363.021-.535.063s-.328.108-.466.201c-.139.094-.25.213-.335.36-.083.146-.126.321-.126.522,0,.302.106.534.316.693.209.159.47.298.78.415.31.118.65.231,1.02.34.369.11.709.261,1.021.454.31.194.57.45.78.768.21.32.314.743.314,1.272,0,.478-.088.895-.264,1.252-.177.357-.413.653-.712.887-.298.235-.645.412-1.038.53-.395.116-.811.175-1.247.175-.554,0-1.088-.092-1.599-.277-.512-.185-.953-.495-1.322-.931l1.196-1.159c.193.294.447.523.761.686s.649.246,1.001.246c.185,0,.369-.025.554-.076s.353-.126.504-.226c.151-.102.272-.229.365-.384.092-.155.138-.335.138-.535,0-.328-.104-.579-.314-.756s-.471-.325-.781-.447-.65-.237-1.02-.347c-.369-.108-.709-.258-1.02-.447s-.571-.44-.781-.755c-.209-.316-.314-.737-.314-1.266,0-.462.095-.86.284-1.196s.436-.616.743-.838.657-.388,1.052-.498c.395-.108.797-.163,1.208-.163.471,0,.926.071,1.366.214.442.143.838.377,1.191.705l-1.159,1.222Z" fill="#f15a22"/><path d="M196.516,263.161h1.373l3.84,8.915h-1.813l-.831-2.039h-3.866l-.806,2.039h-1.776l3.878-8.915ZM198.531,268.677l-1.373-3.626-1.397,3.626h2.77Z" fill="#f15a22"/><path d="M202.723,263.161h1.587v7.48h3.791v1.436h-5.378v-8.915Z" fill="#f15a22"/><path d="M208.78,267.657c0-.713.118-1.362.352-1.946.235-.583.561-1.081.977-1.492.415-.411.91-.728,1.485-.951.575-.222,1.207-.333,1.895-.333.697-.008,1.335.095,1.915.309s1.078.526,1.499.938c.419.411.747.906.982,1.485.234.579.352,1.226.352,1.939,0,.697-.118,1.331-.352,1.901-.235.571-.563,1.062-.982,1.473-.42.412-.919.733-1.499.963-.579.231-1.218.351-1.915.359-.688,0-1.319-.111-1.895-.333-.575-.222-1.07-.537-1.485-.945-.416-.407-.741-.895-.977-1.466-.234-.571-.352-1.204-.352-1.901ZM210.442,267.557c0,.478.074.919.221,1.322.146.403.355.751.622,1.045.269.293.59.525.963.692.373.169.792.253,1.254.253s.88-.084,1.259-.253c.377-.167.701-.399.969-.692.269-.294.476-.642.624-1.045s.221-.844.221-1.322c0-.446-.074-.86-.221-1.247-.147-.385-.355-.724-.624-1.014-.268-.289-.591-.515-.969-.68-.379-.163-.797-.245-1.259-.245s-.88.082-1.254.245c-.373.165-.694.391-.963.68-.268.29-.476.629-.622,1.014-.147.387-.221.801-.221,1.247Z" fill="#f15a22"/><path d="M219.747,263.161h2.103l4.319,6.623h.025v-6.623h1.586v8.915h-2.014l-4.408-6.837h-.025v6.837h-1.587v-8.915Z" fill="#f15a22"/><path d="M233.497,263.161h3.514c.587,0,1.153.091,1.699.272s1.029.455,1.449.824c.419.369.755.834,1.006,1.392.253.558.379,1.215.379,1.971,0,.764-.146,1.425-.435,1.983s-.664,1.02-1.121,1.385-.965.638-1.523.819-1.107.27-1.643.27h-3.325v-8.915ZM236.268,270.641c.495,0,.963-.056,1.404-.17s.824-.289,1.152-.529.586-.55.775-.931c.189-.383.282-.846.282-1.392,0-.538-.083-1-.252-1.385-.167-.387-.4-.7-.698-.939-.298-.238-.65-.415-1.057-.529-.408-.112-.855-.17-1.342-.17h-1.448v6.044h1.184Z" fill="#f15a22"/><path d="M243.053,263.161h5.906v1.436h-4.319v2.192h4.093v1.434h-4.093v2.418h4.545v1.436h-6.132v-8.915Z" fill="#f15a22"/><path d="M256.3,264.597h-2.732v-1.436h7.051v1.436h-2.732v7.48h-1.587v-7.48Z" fill="#f15a22"/><path d="M261.701,263.161h1.587v3.551h4.168v-3.551h1.587v8.915h-1.587v-3.928h-4.168v3.928h-1.587v-8.915Z" fill="#f15a22"/><path d="M271.032,263.161h5.906v1.436h-4.319v2.192h4.093v1.434h-4.093v2.418h4.545v1.436h-6.132v-8.915ZM274.545,260.745h1.713l-1.776,1.813h-1.184l1.247-1.813Z" fill="#f15a22"/><path d="M155.944,44.323c-.062-.356-.096-.702-.187-1.029-1.041-3.827-3.023-7.201-5.114-10.547.425.219.729.544,1.027.871.313.34.623.679.931,1.021.271.304.542.612.806.923.298.35.592.704.881,1.062.29.356.577.715.858,1.077.283.362.562.729.837,1.098.271.369.54.744.804,1.121.267.373.529.752.785,1.133.231.338.454.681.675,1.025.248.385.481.783.735,1.164.233.354.385.781.996,1.244-.183-.529-.252-.765-.346-.985-1.181-2.779-2.485-5.499-4.108-8.049-.794-1.246-1.639-2.473-2.583-3.61-.777-.935-1.687-1.779-2.623-2.56-.862-.719-1.862-1.225-3.002-1.462-1.354-.281-2.404.104-3.239,1.181-.771.987-1.21,2.119-1.502,3.323-.521,2.15-.652,4.335-.656,6.537-.002,2.652.039,5.31-.021,7.962-.44,18.679-.9,37.356-1.352,56.036-.019.816-.035,1.634-.052,2.451l-.023.089s-.097,8.417,0,7.689c.097-.729.497-9.619.497-9.619v.004c.563-10.546,1.104-21.094,1.696-31.638.575-10.245,1.185-20.485,2.144-30.701.221-2.335.556-4.66.846-6.991.035-.302.087-.608.171-.902.254-.894.827-1.116,1.618-.573.458.315.889.698,1.242,1.127.837,1.029,1.694,2.054,2.412,3.166,1.439,2.231,2.789,4.52,4.187,6.781.139.227.16.608.658.583Z" fill="#f15a22"/><path d="M164.646,103.976c-.028.066-.057.132-.082.198.058-.002.116-.002.177-.004-.033-.064-.063-.129-.095-.194Z" fill="#f15a22"/><path d="M208.637,50.604c-4.2-8.768-9.932-16.065-17.196-21.891-7.268-5.827-15.692-10.18-25.279-13.063-9.584-2.881-19.827-4.323-30.728-4.323h-29.318v141.704h28.755c11.149,0,21.612-1.471,31.384-4.416,9.774-2.941,18.261-7.358,25.466-13.249,7.203-5.887,12.874-13.342,17.009-22.364,4.135-9.02,6.202-19.546,6.202-31.574,0-11.776-2.1-22.052-6.295-30.824ZM137.278,93.125c-.058,6.789-.233,13.578-.362,20.367-.027,1.311-.082,2.621-.128,3.934.014.008.024.017.04.024l-.042.019c0-.014.001-.029.002-.043-.381-.207-.268-.592-.272-.909-.027-2.298-.044-4.593-.052-6.891-.083-22.873-.167-45.745-.24-68.616-.008-2.298.031-4.595.104-6.891.063-2.002.362-3.968,1.202-5.814.854-1.877,2.135-3.348,4.079-4.162.179-.075.381-.104.66-.175-.056.221-.048.392-.127.467-2.01,1.86-2.893,4.31-3.454,6.872-.339,1.537-.467,3.129-.571,4.706-.464,7.085-.598,14.18-.656,21.275-.098,11.947-.085,23.893-.183,35.838ZM168.26,83.346c-.112.281-.262.546-.39.808-.529-.019-.696-.446-.952-.739-3.045-3.521-6.778-6.024-11.168-7.564-.194-.067-.385-.135-.581-.192-.098-.025-.202-.017-.416-.029.019.246-.017.49.054.7,2.231,6.608,3.614,13.413,4.731,20.283.077.485.185.971.319,1.65.485-1.523.617-4.143.275-7.483-.242-2.385-.642-4.752-.973-7.153.308-.092.321.26.412.446,1.469,2.941,2.527,6.033,3.312,9.218.771,3.133,1.248,6.312,1.489,9.53.028.362-.112.799.265,1.081.128-.473.306-.937.371-1.42.317-2.391.235-4.791.01-7.185-.223-2.393-.631-4.76-1.179-7.101-.094-.396-.183-.791-.3-1.296.213.062.385.06.429.133,2.812,4.858,4.339,10.022,3.581,15.688-.4,2.985-1.473,5.724-3.152,8.226-.11.162-.269.292-.471.506-.581-.419-.785-1.075-1.183-1.566-.387-.477-.739-.981-1.144-1.442-.437-.498-.904-.971-1.387-1.427-.446-.419-.919-.815-1.398-1.192-.523-.41-1.058-.806-1.61-1.175-.508-.342-1.035-.658-1.575-.946-.59-.31-1.194-.587-1.802-.856-.56-.248-1.131-.479-1.704-.692-.621-.231-1.25-.439-1.985-.696-.046.323-.135.56-.096.775.177,1.006.394,2.006.585,3.008.723,3.818,1.327,7.656,1.546,11.538.088,1.577.05,3.164.069,4.745.006.385.01.771.104,1.16.721-1.773,1.1-3.62,1.325-5.489.225-1.866.317-3.745.462-5.587.54.75.831,1.985,1.138,4.814.192,1.781.279,3.57.102,5.352-.169,1.696-.467,3.381-.708,5.087.7-.777,1.216-2.187,1.768-4.62.388-1.7.665-3.412.746-5.149.077-1.669.077-3.343.11-5.022.356.048.339.356.402.562,1.135,3.698,1.26,7.453.471,11.213-1.002,4.787-3.081,9.074-6.341,12.753-.985,1.112-2.056,2.135-3.285,2.977-.587.402-1.206.781-1.852,1.073-2.181.983-4.366.583-6.07-1.102-1.639-1.619-2.433-3.635-2.616-5.897-.073-.912-.075-1.837-.062-2.756.162-10.314.262-20.629.512-30.941.517-21.542,1.106-43.085,1.687-64.627.037-1.373.196-2.75.415-4.108.148-.896.483-1.767.773-2.635.737-2.2,3.362-4.025,6.535-3.002,1.331.427,2.508,1.139,3.623,1.967,1.91,1.412,3.464,3.168,4.866,5.066,1.552,2.104,2.862,4.358,4.033,6.691,1.746,3.481,3.189,7.083,4.389,10.786.11.337.194.685.265,1.035.017.079-.064.181-.14.367-1.958-1.162-4.095-1.833-6.322-2.191-1.208-.196-2.435-.277-3.654-.394-.135-.01-.277.092-.485.167.129.2.219.371.34.521,1.789,2.198,3.125,4.664,4.262,7.245,1.681,3.798,2.921,7.745,3.91,11.772.133.54.273,1.077.614,1.604.04-.229.121-.462.108-.689-.077-1.375-.108-2.756-.281-4.122-.35-2.746-1.085-5.406-1.977-8.024-.181-.529-.354-1.06-.529-1.585.396-.19.485.112.608.298.881,1.325,1.531,2.771,2.106,4.252.962,2.485,1.654,5.049,2.193,7.653.321,1.552.567,3.118.85,4.677.071.39.156.779.262,1.304.494-1.148.648-2.512.398-4.908-.171-1.621-.433-3.246-.808-4.829-.371-1.581-.937-3.116-1.421-4.679.36-.025.467.296.639.517.187.242.36.496.521.756,1.518,2.458,2.627,5.085,3.229,7.914,1.065,4.981.677,9.849-1.198,14.592Z" fill="#f15a22"/></svg>